{
  "accessors": [
    {
      "bufferView": 2,
      "componentType": 5126,
      "count": 36772,
      "max": [
        -11.170159339904785,
        7.2028517723083496,
        -0.27882599830627441
      ],
      "min": [
        -11.696785926818848,
        6.765531063079834,
        -1.1749839782714844
      ],
      "type": "VEC3"
    },
    {
      "bufferView": 2,
      "byteOffset": 441264,
      "componentType": 5126,
      "count": 36772,
      "max": [
        0.99986636638641357,
        0.99998676776885986,
        0.99944883584976196
      ],
      "min": [
        -0.99999254941940308,
        -0.99999868869781494,
        -0.99999904632568359
      ],
      "type": "VEC3"
    },
    {
      "bufferView": 3,
      "componentType": 5126,
      "count": 36772,
      "max": [
        0.99998265504837036,
        0.99981564283370972,
        0.99994099140167236,
        1
      ],
      "min": [
        -0.9999508261680603,
        -0.99999558925628662,
        -0.99983119964599609,
        -1
      ],
      "type": "VEC4"
    },
    {
      "bufferView": 1,
      "componentType": 5126,
      "count": 36772,
      "max": [
        0.99999499320983887,
        0.99999302625656128
      ],
      "min": [
        1.2000000424450263e-05,
        6.1999999161344022e-05
      ],
      "type": "VEC2"
    },
    {
      "bufferView": 0,
      "componentType": 5125,
      "count": 191850,
      "max": [
        36771
      ],
      "min": [
        0
      ],
      "type": "SCALAR"
    }
  ],
  "asset": {
    "extras": {
      "author": "Minneapolis Institute of Art (https://sketchfab.com/artsmia)",
      "license": "CC-BY-SA-4.0 (http://creativecommons.org/licenses/by-sa/4.0/)",
      "source": "https://sketchfab.com/3d-models/ganesha-10th-11th-c-ce-375c670515684977b6ec05be115366ac",
      "title": "Ganesha, 10th - 11th C CE"
    },
    "generator": "Sketchfab-9.4.0",
    "version": "2.0"
  },
  "bufferViews": [
    {
      "buffer": 0,
      "byteLength": 767400,
      "byteOffset": 0,
      "name": "floatBufferViews",
      "target": 34963
    },
    {
      "buffer": 0,
      "byteLength": 294176,
      "byteOffset": 767400,
      "byteStride": 8,
      "name": "floatBufferViews",
      "target": 34962
    },
    {
      "buffer": 0,
      "byteLength": 882528,
      "byteOffset": 1061576,
      "byteStride": 12,
      "name": "floatBufferViews",
      "target": 34962
    },
    {
      "buffer": 0,
      "byteLength": 588352,
      "byteOffset": 1944104,
      "byteStride": 16,
      "name": "floatBufferViews",
      "target": 34962
    }
  ],
  "buffers": [
    {
      "byteLength": 2532456,
      "uri": "scene.bin"
    }
  ],
  "images": [
    {
      "uri": "textures/191118_mia337_081675_64Kmesh_OBJ_baseColor.jpeg"
    },
    {
      "uri": "textures/191118_mia337_081675_64Kmesh_OBJ_metallicRoughness.png"
    },
    {
      "uri": "textures/191118_mia337_081675_64Kmesh_OBJ_normal.jpeg"
    }
  ],
  "materials": [
    {
      "doubleSided": true,
      "name": "191118_mia337_081675_64Kmesh_OBJ",
      "normalTexture": {
        "index": 2,
        "scale": 1,
        "texCoord": 0
      },
      "occlusionTexture": {
        "index": 1,
        "strength": 1,
        "texCoord": 0
      },
      "pbrMetallicRoughness": {
        "baseColorFactor": [
          1,
          1,
          1,
          1
        ],
        "baseColorTexture": {
          "index": 0,
          "texCoord": 0
        },
        "metallicFactor": 0,
        "metallicRoughnessTexture": {
          "index": 1,
          "texCoord": 0
        },
        "roughnessFactor": 1
      }
    }
  ],
  "meshes": [
    {
      "primitives": [
        {
          "attributes": {
            "NORMAL": 1,
            "POSITION": 0,
            "TANGENT": 2,
            "TEXCOORD_0": 3
          },
          "indices": 4,
          "material": 0,
          "mode": 4
        }
      ]
    }
  ],
  "nodes": [
    {
      "children": [
        1
      ],
      "name": "RootNode (gltf orientation matrix)",
      "rotation": [
        -0.70710678118654746,
        -0,
        -0,
        0.70710678118654757
      ]
    },
    {
      "children": [
        2
      ],
      "name": "RootNode (model correction matrix)"
    },
    {
      "children": [
        3
      ],
      "name": "191118_mia337_081675_64Kmesh_MMrepaired.obj.cleaner.materialmerger.gles"
    },
    {
      "mesh": 0,
      "name": ""
    }
  ],
  "samplers": [
    {
      "magFilter": 9729,
      "minFilter": 9987,
      "wrapS": 10497,
      "wrapT": 10497
    }
  ],
  "scene": 0,
  "scenes": [
    {
      "name": "OSG_Scene",
      "nodes": [
        0
      ]
    }
  ],
  "textures": [
    {
      "sampler": 0,
      "source": 0
    },
    {
      "sampler": 0,
      "source": 1
    },
    {
      "sampler": 0,
      "source": 2
    }
  ]
}

